# xmcd
#
# Track frame offsets:
#	183
#	10413
#	23633
#	33408
#	43710
#	55278
#	66653
#	78583
#	89025
#	102343
#	113028
#	124508
#	134293
#	143993
#	154395
#	162483
#	174510
#	183140
#	196075
#	207478
#
# Disc length: 2897
#
# Revision: 3
# Processed by: cddbd v1.5.1PL0 Copyright (c) Steve Scherf et al.
# Submitted via: CDex 1.51
# Normalized: r2:DSETVAR1,TDELIM( - )
#
DISCID=1f0b4f14
DTITLE=Various Artist - 20 Country Legends
DYEAR=1900
DGENRE=Country
TTITLE0=Leroy van Dyke - Walk On By
TTITLE1=Patti Page - Tennessee Waltz
TTITLE2=Ned Miller - From a Jack To A King
TTITLE3=Johnny Cash - There You Go
TTITLE4=Patsy Cline - Walkin' After Midnight
TTITLE5=Hank Locklin - Send Me The Pillow You Dream On
TTITLE6=Skeeter Davis - I Can't Help You )I Am Falling Too)
TTITLE7=George Jones - Walk Through This World With Me
TTITLE8=Jerry Lee Lewis - You Win Again
TTITLE9=Roger Miller - King Of The Road
TTITLE10=Willie Nelson - What A Way To Live
TTITLE11=Webb Pierce - In The Jailhouse Now
TTITLE12=Jeannie C. Riley - The Girl Most Likely
TTITLE13=Faron Young - Hello Walls
TTITLE14=Freddy Fender - Wasted Days Wasted Nights
TTITLE15=Wanda Jackson - Right Or Wrong
TTITLE16=Waylon Jennings - Abilene
TTITLE17=Dave Dudley - Me And Ole C.B.
TTITLE18=Billie Jo Spears - Stand By Your Man
TTITLE19=Jimmy C. Newman - Alligator Man
EXTD=
EXTT0=
EXTT1=
EXTT2=
EXTT3=
EXTT4=
EXTT5=
EXTT6=
EXTT7=
EXTT8=
EXTT9=
EXTT10=
EXTT11=
EXTT12=
EXTT13=
EXTT14=
EXTT15=
EXTT16=
EXTT17=
EXTT18=
EXTT19=
PLAYORDER=
